<svg width="312" height="124" viewBox="0 0 312 124" fill="none" xmlns="http://www.w3.org/2000/svg">
<path d="M0 99.4345V82.139L50.9774 1.64161H65.4083V26.2657H56.609L22.2916 80.6147V81.5527H93.4488V99.4345H0ZM57.3129 121.713V94.1579L57.5476 86.4189V1.64161H78.0793V121.713H57.3129Z" fill="white"/>
<path d="M155.773 124C146.113 124 137.822 121.557 130.9 116.671C124.017 111.747 118.718 104.652 115.002 95.3891C111.326 86.0867 109.488 74.8886 109.488 61.7948C109.527 48.701 111.385 37.5615 115.061 28.3764C118.776 19.1521 124.076 12.1166 130.959 7.26998C137.881 2.42333 146.152 0 155.773 0C165.393 0 173.665 2.42333 180.587 7.26998C187.509 12.1166 192.808 19.1521 196.484 28.3764C200.2 37.6006 202.057 48.7401 202.057 61.7948C202.057 74.9277 200.2 86.1453 196.484 95.4478C192.808 104.711 187.509 111.786 180.587 116.671C173.704 121.557 165.432 124 155.773 124ZM155.773 105.649C163.281 105.649 169.206 101.956 173.547 94.5683C177.927 87.142 180.117 76.2175 180.117 61.7948C180.117 52.2578 179.12 44.2452 177.126 37.757C175.131 31.2687 172.315 26.383 168.678 23.0998C165.041 19.7775 160.739 18.1163 155.773 18.1163C148.303 18.1163 142.398 21.8295 138.057 29.2558C133.716 36.643 131.526 47.4894 131.487 61.7948C131.447 71.3708 132.406 79.4225 134.361 85.9499C136.356 92.4772 139.171 97.4021 142.808 100.724C146.445 104.008 150.767 105.649 155.773 105.649Z" fill="white"/>
<path d="M218.551 99.4345V82.139L269.529 1.64161H283.959V26.2657H275.16L240.843 80.6147V81.5527H312V99.4345H218.551ZM275.864 121.713V94.1579L276.099 86.4189V1.64161H296.631V121.713H275.864Z" fill="white"/>
</svg>
