<svg width="303" height="124" viewBox="0 0 303 124" fill="none" xmlns="http://www.w3.org/2000/svg">
<path d="M41.7482 123.355C33.9692 123.355 27.007 121.889 20.8616 118.958C14.7161 115.987 9.83481 111.922 6.21757 106.763C2.63923 101.604 0.733371 95.7018 0.5 89.0572H21.5033C21.8923 93.982 24.0121 98.0079 27.8627 101.135C31.7133 104.223 36.3418 105.766 41.7482 105.766C45.9878 105.766 49.7606 104.789 53.0667 102.835C56.3727 100.881 58.9787 98.1642 60.8846 94.6856C62.7904 91.2069 63.7239 87.2397 63.685 82.7839C63.7239 78.25 62.771 74.2241 60.8262 70.7064C58.8815 67.1887 56.2171 64.4331 52.8333 62.4397C49.4494 60.4072 45.5599 59.391 41.1648 59.391C37.5864 59.3519 34.0664 60.0164 30.6048 61.3844C27.1431 62.7524 24.401 64.5504 22.3785 66.7783L2.8337 63.5537L9.07636 1.64161H78.3873V19.8166H26.9875L23.5453 51.652H24.2454C26.4624 49.0333 29.5935 46.864 33.6386 45.1442C37.6837 43.3853 42.1177 42.5059 46.9407 42.5059C54.1752 42.5059 60.6317 44.2257 66.3104 47.6652C71.9891 51.0657 76.462 55.756 79.7292 61.7362C82.9964 67.7163 84.63 74.5563 84.63 82.2563C84.63 90.1907 82.8019 97.2653 79.1458 103.48C75.5285 109.655 70.4916 114.522 64.035 118.078C57.6174 121.596 50.1884 123.355 41.7482 123.355Z" fill="white"/>
<path d="M147.519 124C137.912 124 129.666 121.557 122.781 116.671C115.936 111.747 110.666 104.652 106.971 95.3891C103.314 86.0867 101.486 74.8886 101.486 61.7948C101.525 48.701 103.373 37.5615 107.029 28.3764C110.724 19.1521 115.994 12.1166 122.84 7.26998C129.724 2.42333 137.95 0 147.519 0C157.087 0 165.313 2.42333 172.197 7.26998C179.082 12.1166 184.352 19.1521 188.008 28.3764C191.703 37.6006 193.551 48.7401 193.551 61.7948C193.551 74.9277 191.703 86.1453 188.008 95.4478C184.352 104.711 179.082 111.786 172.197 116.671C165.352 121.557 157.126 124 147.519 124ZM147.519 105.649C154.986 105.649 160.879 101.956 165.196 94.5683C169.553 87.142 171.731 76.2175 171.731 61.7948C171.731 52.2578 170.739 44.2452 168.755 37.757C166.772 31.2687 163.971 26.383 160.354 23.0998C156.737 19.7775 152.458 18.1163 147.519 18.1163C140.09 18.1163 134.216 21.8295 129.899 29.2558C125.582 36.643 123.404 47.4894 123.365 61.7948C123.326 71.3708 124.279 79.4225 126.224 85.9499C128.207 92.4772 131.008 97.4021 134.625 100.724C138.242 104.008 142.54 105.649 147.519 105.649Z" fill="white"/>
<path d="M256.279 124C246.672 124 238.426 121.557 231.542 116.671C224.696 111.747 219.426 104.652 215.731 95.3891C212.075 86.0867 210.247 74.8886 210.247 61.7948C210.286 48.701 212.133 37.5615 215.789 28.3764C219.484 19.1521 224.755 12.1166 231.6 7.26998C238.485 2.42333 246.711 0 256.279 0C265.847 0 274.074 2.42333 280.958 7.26998C287.842 12.1166 293.113 19.1521 296.769 28.3764C300.464 37.6006 302.311 48.7401 302.311 61.7948C302.311 74.9277 300.464 86.1453 296.769 95.4478C293.113 104.711 287.842 111.786 280.958 116.671C274.112 121.557 265.886 124 256.279 124ZM256.279 105.649C263.747 105.649 269.639 101.956 273.957 94.5683C278.313 87.142 280.491 76.2175 280.491 61.7948C280.491 52.2578 279.499 44.2452 277.516 37.757C275.532 31.2687 272.732 26.383 269.114 23.0998C265.497 19.7775 261.219 18.1163 256.279 18.1163C248.85 18.1163 242.977 21.8295 238.66 29.2558C234.342 36.643 232.164 47.4894 232.125 61.7948C232.086 71.3708 233.039 79.4225 234.984 85.9499C236.968 92.4772 239.768 97.4021 243.385 100.724C247.003 104.008 251.3 105.649 256.279 105.649Z" fill="white"/>
</svg>
