<svg width="301" height="124" viewBox="0 0 301 124" fill="none" xmlns="http://www.w3.org/2000/svg">
<path d="M41.9506 123.355C34.1334 123.355 27.137 121.889 20.9615 118.958C14.7859 115.987 9.88061 111.922 6.24563 106.763C2.64972 101.604 0.734516 95.7018 0.5 89.0572H21.6064C21.9972 93.982 24.1274 98.0079 27.9969 101.135C31.8664 104.223 36.5177 105.766 41.9506 105.766C46.211 105.766 50.0023 104.789 53.3246 102.835C56.6469 100.881 59.2656 98.1642 61.1809 94.6856C63.0961 91.2069 64.0341 87.2397 63.995 82.7839C64.0341 78.25 63.0765 74.2241 61.1222 70.7064C59.1679 67.1887 56.4905 64.4331 53.0901 62.4397C49.6896 60.4072 45.781 59.391 41.3643 59.391C37.7684 59.3519 34.2311 60.0164 30.7525 61.3844C27.2738 62.7524 24.5183 64.5504 22.4858 66.7783L2.84515 63.5537L9.11844 1.64161H78.7695V19.8166H27.1175L23.6584 51.652H24.3619C26.5898 49.0333 29.7362 46.864 33.8012 45.1442C37.8661 43.3853 42.3219 42.5059 47.1686 42.5059C54.4385 42.5059 60.9268 44.2257 66.6333 47.6652C72.3399 51.0657 76.8348 55.756 80.118 61.7362C83.4012 67.7163 85.0428 74.5563 85.0428 82.2563C85.0428 90.1907 83.2057 97.2653 79.5317 103.48C75.8967 109.655 70.8351 114.522 64.3468 118.078C57.8976 121.596 50.4322 123.355 41.9506 123.355Z" fill="white"/>
<path d="M148.24 124C138.586 124 130.3 121.557 123.381 116.671C116.502 111.747 111.206 104.652 107.493 95.3891C103.819 86.0867 101.982 74.8886 101.982 61.7948C102.021 48.701 103.878 37.5615 107.552 28.3764C111.265 19.1521 116.561 12.1166 123.44 7.26998C130.358 2.42333 138.625 0 148.24 0C157.855 0 166.122 2.42333 173.04 7.26998C179.958 12.1166 185.254 19.1521 188.928 28.3764C192.642 37.6006 194.498 48.7401 194.498 61.7948C194.498 74.9277 192.642 86.1453 188.928 95.4478C185.254 104.711 179.958 111.786 173.04 116.671C166.161 121.557 157.894 124 148.24 124ZM148.24 105.649C155.744 105.649 161.666 101.956 166.005 94.5683C170.382 87.142 172.571 76.2175 172.571 61.7948C172.571 52.2578 171.574 44.2452 169.581 37.757C167.588 31.2687 164.773 26.383 161.138 23.0998C157.503 19.7775 153.204 18.1163 148.24 18.1163C140.775 18.1163 134.873 21.8295 130.534 29.2558C126.196 36.643 124.007 47.4894 123.968 61.7948C123.929 71.3708 124.886 79.4225 126.84 85.9499C128.834 92.4772 131.648 97.4021 135.283 100.724C138.918 104.008 143.237 105.649 148.24 105.649Z" fill="white"/>
<path d="M256.244 123.355C247.802 123.355 240.297 121.909 233.731 119.017C227.203 116.124 222.044 112.098 218.253 106.939C214.461 101.78 212.449 95.8191 212.214 89.0572H234.258C234.454 92.3013 235.529 95.1351 237.483 97.5584C239.437 99.9426 242.037 101.799 245.281 103.128C248.525 104.457 252.16 105.122 256.186 105.122C260.485 105.122 264.296 104.379 267.618 102.894C270.941 101.369 273.54 99.2586 275.416 96.5617C277.292 93.8648 278.211 90.7575 278.171 87.2397C278.211 83.6047 277.272 80.3997 275.357 77.6246C273.442 74.8495 270.667 72.6802 267.032 71.1168C263.436 69.5534 259.098 68.7716 254.016 68.7716H243.405V52.0038H254.016C258.199 52.0038 261.853 51.2807 264.98 49.8345C268.146 48.3883 270.628 46.3559 272.426 43.7371C274.224 41.0793 275.103 38.011 275.064 34.5324C275.103 31.1319 274.341 28.1809 272.778 25.6794C271.253 23.1388 269.084 21.165 266.27 19.7579C263.495 18.3508 260.231 17.6473 256.479 17.6473C252.805 17.6473 249.404 18.3117 246.277 19.6407C243.15 20.9696 240.629 22.8652 238.714 25.3277C236.799 27.751 235.783 30.6433 235.666 34.0047H214.735C214.891 27.282 216.826 21.38 220.539 16.2988C224.292 11.1786 229.295 7.1918 235.548 4.33854C241.802 1.44618 248.818 0 256.596 0C264.609 0 271.566 1.50481 277.468 4.51442C283.409 7.48495 288.002 11.4913 291.246 16.5333C294.49 21.5754 296.112 27.1452 296.112 33.2426C296.151 40.0044 294.158 45.6719 290.132 50.2449C286.145 54.818 280.908 57.808 274.419 59.2151V60.1532C282.862 61.3258 289.33 64.4526 293.825 69.5338C298.359 74.5759 300.607 80.8492 300.568 88.3537C300.568 95.0764 298.652 101.096 294.822 106.411C291.031 111.688 285.793 115.831 279.11 118.841C272.465 121.85 264.843 123.355 256.244 123.355Z" fill="white"/>
</svg>
