<svg width="12" height="12" viewBox="0 0 12 12" fill="none" xmlns="http://www.w3.org/2000/svg">
<path d="M6.66683 1.49967C6.66683 1.13148 6.36835 0.833008 6.00016 0.833008C5.63197 0.833008 5.3335 1.13148 5.3335 1.49967V5.33301H1.50016C1.13197 5.33301 0.833496 5.63148 0.833496 5.99967C0.833496 6.36786 1.13197 6.66634 1.50016 6.66634H5.3335V10.4997C5.3335 10.8679 5.63197 11.1663 6.00016 11.1663C6.36835 11.1663 6.66683 10.8679 6.66683 10.4997V6.66634H10.5002C10.8684 6.66634 11.1668 6.36786 11.1668 5.99967C11.1668 5.63148 10.8684 5.33301 10.5002 5.33301H6.66683V1.49967Z" fill="white"/>
</svg>
