<svg width="24" height="24" viewBox="0 0 24 24" fill="none" xmlns="http://www.w3.org/2000/svg">
<rect x="1" y="1" width="22" height="22" rx="4" fill="#0B59FF"/>
<path fill-rule="evenodd" clip-rule="evenodd" d="M12 21C16.9706 21 21 16.9706 21 12C21 7.02943 16.9706 3 12 3C7.02944 3 3 7.02943 3 12C3 16.9706 7.02944 21 12 21ZM9.81657 9.07101C9.4048 9.07101 9.07101 9.40481 9.07101 9.81657V14.1834C9.07101 14.5952 9.4048 14.929 9.81657 14.929H14.1834C14.5952 14.929 14.929 14.5952 14.929 14.1834V9.81657C14.929 9.40481 14.5952 9.07101 14.1834 9.07101H9.81657Z" fill="white"/>
</svg>
