<svg width="16" height="16" viewBox="0 0 16 16" fill="none" xmlns="http://www.w3.org/2000/svg">
<path fill-rule="evenodd" clip-rule="evenodd" d="M9.64521 1.99984C9.64521 2.322 9.90638 2.58317 10.2285 2.58317H12.5917L8.30749 6.86736C8.07969 7.09516 8.07969 7.46451 8.30749 7.69232C8.5353 7.92012 8.90465 7.92012 9.13245 7.69232L13.4166 3.40813V5.77127C13.4166 6.09343 13.6778 6.3546 14 6.3546C14.3221 6.3546 14.5833 6.09343 14.5833 5.77127V1.99984C14.5833 1.67767 14.3221 1.4165 14 1.4165H10.2285C9.90638 1.4165 9.64521 1.67767 9.64521 1.99984ZM4.07997 2.1365C2.96252 2.1365 2.05664 3.04238 2.05664 4.15984V11.9198C2.05664 13.0373 2.96252 13.9432 4.07997 13.9432H11.84C12.9574 13.9432 13.8633 13.0373 13.8633 11.9198V9.49409C13.8633 9.17192 13.6021 8.91076 13.28 8.91076C12.9578 8.91076 12.6966 9.17192 12.6966 9.49409V11.9198C12.6966 12.393 12.3131 12.7765 11.84 12.7765H4.07997C3.60685 12.7765 3.22331 12.393 3.22331 11.9198L3.22331 4.15984C3.22331 3.68671 3.60685 3.30317 4.07997 3.30317H6.50177C6.82394 3.30317 7.0851 3.042 7.0851 2.71984C7.0851 2.39767 6.82394 2.1365 6.50177 2.1365H4.07997Z" fill="#89A8F9"/>
</svg>
