<svg width="24" height="24" viewBox="0 0 24 24" fill="none" xmlns="http://www.w3.org/2000/svg">
<path fill-rule="evenodd" clip-rule="evenodd" d="M14.4679 3C14.4679 3.48325 14.8596 3.875 15.3429 3.875H18.8876L12.4613 10.3013C12.1196 10.643 12.1196 11.197 12.4613 11.5387C12.803 11.8804 13.357 11.8804 13.6987 11.5387L20.125 5.11244V8.65714C20.125 9.14039 20.5168 9.53214 21 9.53214C21.4833 9.53214 21.875 9.14039 21.875 8.65714V3C21.875 2.51675 21.4833 2.125 21 2.125H15.3429C14.8596 2.125 14.4679 2.51675 14.4679 3ZM6.12002 3.205C4.44384 3.205 3.08502 4.56382 3.08502 6.24V17.88C3.08502 19.5562 4.44384 20.915 6.12002 20.915H17.76C19.4362 20.915 20.795 19.5562 20.795 17.88V14.2414C20.795 13.7581 20.4033 13.3664 19.92 13.3664C19.4368 13.3664 19.045 13.7581 19.045 14.2414V17.88C19.045 18.5897 18.4697 19.165 17.76 19.165H6.12002C5.41034 19.165 4.83502 18.5897 4.83502 17.88L4.83502 6.24C4.83502 5.53031 5.41034 4.955 6.12002 4.955H9.75272C10.236 4.955 10.6277 4.56325 10.6277 4.08C10.6277 3.59675 10.236 3.205 9.75272 3.205H6.12002Z" fill="white"/>
</svg>
