<svg width="24" height="24" viewBox="0 0 24 24" fill="none" xmlns="http://www.w3.org/2000/svg">
<path d="M19.125 4.50001H11.8177C11.5957 4.50072 11.3785 4.43545 11.1938 4.31251L9.89062 3.4411C9.45911 3.15254 8.95145 2.99899 8.43234 3.00001H4.875C4.17904 3.00075 3.51179 3.27755 3.01967 3.76967C2.52755 4.26179 2.25074 4.92904 2.25 5.62501V6.75001H21.75C21.75 5.30251 20.5725 4.50001 19.125 4.50001Z" fill="white"/>
<path d="M19.8633 21H4.13671C3.44793 20.9992 2.78706 20.7278 2.29661 20.2441C1.80616 19.7605 1.52544 19.1035 1.51499 18.4148L0.758425 10.6927V10.6795C0.73365 10.37 0.773204 10.0587 0.874597 9.76526C0.97599 9.47179 1.13703 9.20247 1.34758 8.97427C1.55813 8.74606 1.81363 8.5639 2.09801 8.43926C2.38239 8.31461 2.68949 8.25017 2.99999 8.25H21.0047C21.3151 8.2503 21.6221 8.31484 21.9064 8.43954C22.1906 8.56424 22.446 8.74642 22.6565 8.97461C22.8669 9.2028 23.0279 9.47207 23.1292 9.76548C23.2305 10.0589 23.2701 10.3701 23.2453 10.6795V10.6927L22.485 18.4148C22.4745 19.1035 22.1938 19.7605 21.7034 20.2441C21.2129 20.7278 20.552 20.9992 19.8633 21Z" fill="white"/>
</svg>
