<svg width="24" height="24" viewBox="0 0 24 24" fill="none" xmlns="http://www.w3.org/2000/svg">
<circle cx="12" cy="12" r="12" fill="#7950DD"/>
<path d="M15.5646 9.66596C15.3063 9.51374 14.9705 9.51374 14.6864 9.66596L12.6716 10.833L11.3026 11.5941L9.28782 12.7611C9.02953 12.9133 8.69373 12.9133 8.40959 12.7611L6.80812 11.8478C6.54982 11.6956 6.369 11.4165 6.369 11.112V9.31078C6.369 9.00634 6.52398 8.72727 6.80812 8.57505L8.38376 7.6871C8.64207 7.53488 8.97784 7.53488 9.262 7.6871L10.8376 8.57505C11.0959 8.72727 11.2767 9.00634 11.2767 9.31078V10.4778L12.6457 9.69133V8.52431C12.6457 8.21987 12.4908 7.9408 12.2066 7.78858L9.28782 6.11416C9.02953 5.96195 8.69373 5.96195 8.40959 6.11416L5.43912 7.78858C5.15498 7.9408 5 8.21987 5 8.52431V11.8985C5 12.2029 5.15498 12.482 5.43912 12.6342L8.40959 14.3086C8.6679 14.4609 9.00371 14.4609 9.28782 14.3086L11.3026 13.167L12.6716 12.3805L14.6864 11.2389C14.9446 11.0867 15.2804 11.0867 15.5646 11.2389L17.1402 12.1269C17.3985 12.2791 17.5793 12.5581 17.5793 12.8626V14.6638C17.5793 14.9683 17.4244 15.2473 17.1402 15.3996L15.5646 16.3129C15.3063 16.4651 14.9705 16.4651 14.6864 16.3129L13.1107 15.4249C12.8524 15.2727 12.6716 14.9937 12.6716 14.6892V13.5222L11.3026 14.3086V15.4757C11.3026 15.7801 11.4576 16.0592 11.7417 16.2114L14.7122 17.8858C14.9705 18.0381 15.3063 18.0381 15.5904 17.8858L18.5609 16.2114C18.8192 16.0592 19 15.7801 19 15.4757V12.1015C19 11.797 18.845 11.518 18.5609 11.3658L15.5646 9.66596Z" fill="white"/>
</svg>
