<svg width="24" height="24" viewBox="0 0 24 24" fill="none" xmlns="http://www.w3.org/2000/svg">
<path d="M6.75 8.5C5.82174 8.5 4.9315 8.86875 4.27513 9.52513C3.61875 10.1815 3.25 11.0717 3.25 12C3.25 12.9283 3.61875 13.8185 4.27513 14.4749C4.9315 15.1313 5.82174 15.5 6.75 15.5H9.40594C9.95822 15.5 10.4059 15.9477 10.4059 16.5C10.4059 17.0523 9.95822 17.5 9.40594 17.5H6.75C5.29131 17.5 3.89236 16.9205 2.86091 15.8891C1.82946 14.8576 1.25 13.4587 1.25 12C1.25 10.5413 1.82946 9.14236 2.86091 8.11091C3.89236 7.07946 5.29131 6.5 6.75 6.5H9.34734C9.89963 6.5 10.3473 6.94772 10.3473 7.5C10.3473 8.05228 9.89963 8.5 9.34734 8.5H6.75Z" fill="white"/>
<path d="M13.6526 7.5C13.6526 6.94772 14.1003 6.5 14.6526 6.5H17.2499C18.7086 6.5 20.1076 7.07946 21.139 8.11091C22.1705 9.14236 22.7499 10.5413 22.7499 12C22.7499 13.4587 22.1705 14.8576 21.139 15.8891C20.1076 16.9205 18.7086 17.5 17.2499 17.5H14.594C14.0417 17.5 13.594 17.0523 13.594 16.5C13.594 15.9477 14.0417 15.5 14.594 15.5H17.2499C18.1782 15.5 19.0684 15.1313 19.7248 14.4749C20.3812 13.8185 20.7499 12.9283 20.7499 12C20.7499 11.0717 20.3812 10.1815 19.7248 9.52513C19.0684 8.86875 18.1782 8.5 17.2499 8.5H14.6526C14.1003 8.5 13.6526 8.05228 13.6526 7.5Z" fill="white"/>
<path d="M7.92505 11C7.37276 11 6.92505 11.4477 6.92505 12C6.92505 12.5523 7.37276 13 7.92505 13H16.1685C16.7208 13 17.1685 12.5523 17.1685 12C17.1685 11.4477 16.7208 11 16.1685 11H7.92505Z" fill="white"/>
</svg>
