<svg width="24" height="24" viewBox="0 0 24 24" fill="none" xmlns="http://www.w3.org/2000/svg">
<rect width="24" height="24" rx="6" fill="#3E3E3E"/>
<path d="M17.5653 7.62381C19.3723 10.0936 20.2647 12.8795 19.9311 16.0868C19.9297 16.1003 19.9221 16.1128 19.9101 16.121C18.5417 17.0551 17.2159 17.622 15.9087 17.9979C15.8985 18.0008 15.8876 18.0006 15.8776 17.9974C15.8675 17.9943 15.8587 17.9883 15.8525 17.9802C15.5505 17.5896 15.2761 17.1778 15.0357 16.7453C15.0219 16.7198 15.0345 16.6892 15.0629 16.6791C15.4987 16.5265 15.9131 16.3435 16.3117 16.1269C16.3431 16.1098 16.3451 16.068 16.3161 16.0479C16.2315 15.9895 16.1477 15.9282 16.0675 15.8668C16.0525 15.8555 16.0323 15.8532 16.0153 15.8609C13.4275 16.9718 10.5927 16.9718 7.97433 15.8609C7.95733 15.8538 7.93713 15.8562 7.92253 15.8674C7.84253 15.9287 7.75853 15.9895 7.67473 16.0479C7.64573 16.068 7.64813 16.1098 7.67973 16.1269C8.07833 16.3394 8.49273 16.5265 8.92793 16.6799C8.95613 16.6899 8.96953 16.7198 8.95553 16.7453C8.72033 17.1783 8.44593 17.5902 8.13833 17.9808C8.12493 17.9966 8.10293 18.0038 8.08213 17.9979C6.78114 17.622 5.45534 17.0551 4.08694 16.121C4.07554 16.1128 4.06734 16.0998 4.06614 16.0862C3.78734 13.312 4.35554 10.5031 6.42974 7.62325C6.43474 7.61563 6.44234 7.60968 6.45114 7.60615C7.47173 7.17071 8.56513 6.85036 9.70793 6.66741C9.72873 6.66443 9.74953 6.67336 9.76033 6.69046C9.90153 6.92287 10.0629 7.22091 10.1721 7.46447C11.3767 7.29342 12.6001 7.29342 13.8299 7.46447C13.9391 7.22612 14.0949 6.92287 14.2355 6.69046C14.2405 6.68198 14.2483 6.67518 14.2577 6.67104C14.2671 6.6669 14.2777 6.66563 14.2879 6.66741C15.4313 6.85092 16.5247 7.17127 17.5445 7.60615C17.5535 7.60968 17.5609 7.61563 17.5653 7.62381ZM10.7845 12.8985C10.7971 12.0784 10.1539 11.3998 9.34653 11.3998C8.54573 11.3998 7.90873 12.0724 7.90873 12.8985C7.90873 13.7244 8.55833 14.3971 9.34653 14.3971C10.1475 14.3971 10.7845 13.7244 10.7845 12.8985ZM16.1009 12.8985C16.1135 12.0784 15.4703 11.3998 14.6631 11.3998C13.8621 11.3998 13.2251 12.0724 13.2251 12.8985C13.2251 13.7244 13.8747 14.3971 14.6631 14.3971C15.4703 14.3971 16.1009 13.7244 16.1009 12.8985Z" fill="white"/>
</svg>
