<svg width="24" height="24" viewBox="0 0 24 24" fill="none" xmlns="http://www.w3.org/2000/svg">
<rect width="24" height="24" rx="6" fill="#3E3E3E"/>
<path d="M14.9166 6.16656C15.6895 6.16887 16.43 6.47692 16.9766 7.02345C17.5231 7.56997 17.8311 8.31054 17.8334 9.08344V14.9166C17.8311 15.6895 17.5231 16.43 16.9766 16.9766C16.43 17.5231 15.6895 17.8311 14.9166 17.8334H9.08344C8.31054 17.8311 7.56997 17.5231 7.02345 16.9766C6.47692 16.43 6.16887 15.6895 6.16656 14.9166V9.08344C6.16887 8.31054 6.47692 7.56997 7.02345 7.02345C7.56997 6.47692 8.31054 6.16887 9.08344 6.16656H14.9166ZM14.9166 5H9.08344C6.8375 5 5 6.8375 5 9.08344V14.9166C5 17.1625 6.8375 19 9.08344 19H14.9166C17.1625 19 19 17.1625 19 14.9166V9.08344C19 6.8375 17.1625 5 14.9166 5Z" fill="white"/>
<path d="M15.7916 9.0835C15.6185 9.0835 15.4493 9.03218 15.3054 8.93603C15.1615 8.83989 15.0494 8.70323 14.9832 8.54334C14.9169 8.38346 14.8996 8.20753 14.9334 8.03779C14.9671 7.86806 15.0505 7.71215 15.1728 7.58978C15.2952 7.46741 15.4511 7.38407 15.6209 7.35031C15.7906 7.31655 15.9665 7.33388 16.1264 7.4001C16.2863 7.46633 16.423 7.57848 16.5191 7.72237C16.6152 7.86627 16.6666 8.03544 16.6666 8.2085C16.6668 8.32347 16.6443 8.43737 16.6005 8.54364C16.5566 8.64991 16.4921 8.74647 16.4108 8.82777C16.3295 8.90907 16.233 8.97351 16.1267 9.01739C16.0204 9.06128 15.9065 9.08374 15.7916 9.0835Z" fill="white"/>
<path d="M12 9.66656C12.4615 9.66656 12.9127 9.80342 13.2964 10.0598C13.6801 10.3162 13.9792 10.6807 14.1558 11.107C14.3324 11.5334 14.3786 12.0026 14.2886 12.4552C14.1986 12.9079 13.9763 13.3237 13.65 13.65C13.3237 13.9763 12.9079 14.1986 12.4552 14.2886C12.0026 14.3786 11.5334 14.3324 11.107 14.1558C10.6807 13.9792 10.3162 13.6801 10.0598 13.2964C9.80342 12.9127 9.66656 12.4615 9.66656 12C9.66723 11.3813 9.91328 10.7882 10.3507 10.3507C10.7882 9.91328 11.3813 9.66722 12 9.66656ZM12 8.5C11.3078 8.5 10.6311 8.70527 10.0555 9.08986C9.47993 9.47444 9.03133 10.0211 8.76642 10.6606C8.50152 11.3001 8.4322 12.0039 8.56725 12.6828C8.7023 13.3618 9.03564 13.9854 9.52513 14.4749C10.0146 14.9644 10.6383 15.2977 11.3172 15.4327C11.9961 15.5678 12.6999 15.4985 13.3394 15.2336C13.9789 14.9687 14.5256 14.5201 14.9101 13.9445C15.2947 13.3689 15.5 12.6922 15.5 12C15.5 11.0717 15.1313 10.1815 14.4749 9.52513C13.8185 8.86875 12.9283 8.5 12 8.5Z" fill="white"/>
</svg>
