<svg width="24" height="24" viewBox="0 0 24 24" fill="none" xmlns="http://www.w3.org/2000/svg">
<rect width="24" height="24" rx="6" fill="#3E3E3E"/>
<path fill-rule="evenodd" clip-rule="evenodd" d="M19 12.0422C19 8.17661 15.8656 5.04224 12 5.04224C8.13438 5.04224 5 8.17661 5 12.0422C5 15.536 7.55938 18.4319 10.9062 18.9575V14.0663H9.12844V12.0422H10.9062V10.5C10.9062 8.74599 11.9516 7.7763 13.5503 7.7763C14.3162 7.7763 15.1175 7.91317 15.1175 7.91317V9.63599H14.2344C13.3653 9.63599 13.0934 10.1754 13.0934 10.7297V12.0422H15.0347L14.7247 14.0663H13.0938V18.9582C16.4406 18.4329 19 15.5369 19 12.0422Z" fill="white"/>
</svg>
