<svg width="24" height="24" viewBox="0 0 24 24" fill="none" xmlns="http://www.w3.org/2000/svg">
<rect width="24" height="24" rx="6" fill="#3E3E3E"/>
<path d="M19.5 7.42188C18.9373 7.66637 18.342 7.82744 17.7328 7.90001C18.373 7.52512 18.8545 6.92956 19.0869 6.22501C18.4816 6.57894 17.8205 6.82728 17.1319 6.95938C16.8419 6.65548 16.4932 6.41373 16.1069 6.2488C15.7205 6.08388 15.3047 5.99923 14.8847 6.00001C13.1841 6.00001 11.8078 7.35625 11.8078 9.02813C11.8066 9.26068 11.8333 9.49254 11.8872 9.71876C10.6677 9.66159 9.4736 9.3505 8.38124 8.8054C7.28889 8.26029 6.32234 7.49318 5.54344 6.55313C5.27018 7.01379 5.12567 7.53939 5.125 8.075C5.125 9.125 5.67281 10.0531 6.5 10.5969C6.00991 10.5852 5.52987 10.4555 5.10063 10.2188V10.2563C5.10063 11.725 6.16313 12.9469 7.56938 13.225C7.30493 13.2955 7.03243 13.3312 6.75875 13.3313C6.56456 13.3316 6.3708 13.3128 6.18031 13.275C6.57125 14.4781 7.70906 15.3531 9.05688 15.3781C7.96168 16.2222 6.61707 16.6784 5.23438 16.675C4.98894 16.6746 4.74374 16.66 4.5 16.6313C5.90662 17.5294 7.5417 18.0045 9.21063 18C14.8781 18 17.9744 13.3844 17.9744 9.38125C17.9744 9.25001 17.9709 9.11875 17.9647 8.99063C18.5657 8.56315 19.0856 8.03191 19.5 7.42188Z" fill="white"/>
</svg>
