<svg width="24" height="24" viewBox="0 0 24 24" fill="none" xmlns="http://www.w3.org/2000/svg">
<path d="M20.6476 2.67419L13.1523 8.24105L14.5384 4.95668L20.6476 2.67419Z" fill="#E2761B" stroke="#E2761B" stroke-width="0.0753296" stroke-linecap="round" stroke-linejoin="round"/>
<path d="M3.34467 2.67419L10.7797 8.29378L9.46143 4.95668L3.34467 2.67419ZM17.9511 15.5781L15.9548 18.6365L20.226 19.8117L21.4539 15.6459L17.9511 15.5781ZM2.55371 15.6459L3.77405 19.8117L8.04524 18.6365L6.049 15.5781L2.55371 15.6459Z" fill="#E4761B" stroke="#E4761B" stroke-width="0.0753296" stroke-linecap="round" stroke-linejoin="round"/>
<path d="M7.80398 10.4105L6.61377 12.2109L10.8548 12.3992L10.7042 7.84179L7.80398 10.4105ZM16.1882 10.4105L13.2503 7.78906L13.1524 12.3992L17.3859 12.2109L16.1882 10.4105ZM8.04503 18.6365L10.5912 17.3936L8.39155 15.6761L8.04503 18.6365ZM13.401 17.3936L15.9546 18.6365L15.6006 15.6761L13.401 17.3936Z" fill="#E4761B" stroke="#E4761B" stroke-width="0.0753296" stroke-linecap="round" stroke-linejoin="round"/>
<path d="M15.955 18.6366L13.4013 17.3937L13.6047 19.0585L13.5821 19.759L15.955 18.6366ZM8.04541 18.6366L10.4183 19.759L10.4032 19.0585L10.5915 17.3937L8.04541 18.6366Z" fill="#D7C1B3" stroke="#D7C1B3" stroke-width="0.0753296" stroke-linecap="round" stroke-linejoin="round"/>
<path d="M10.4558 14.5762L8.33154 13.951L9.8306 13.2655L10.4558 14.5762ZM13.5368 14.5762L14.1621 13.2655L15.6686 13.951L13.5368 14.5762Z" fill="#233447" stroke="#233447" stroke-width="0.0753296" stroke-linecap="round" stroke-linejoin="round"/>
<path d="M8.04506 18.6365L8.40664 15.5782L6.04883 15.646L8.04506 18.6365ZM15.5931 15.5782L15.9547 18.6365L17.9509 15.646L15.5931 15.5782ZM17.3859 12.2109L13.1524 12.3993L13.5441 14.5763L14.1694 13.2656L15.6759 13.951L17.3859 12.2109ZM8.33131 13.951L9.83791 13.2656L10.4556 14.5763L10.8549 12.3993L6.6138 12.2109L8.33131 13.951Z" fill="#CD6116" stroke="#CD6116" stroke-width="0.0753296" stroke-linecap="round" stroke-linejoin="round"/>
<path d="M6.61377 12.2109L8.39155 15.6761L8.33128 13.951L6.61377 12.2109ZM15.6759 13.951L15.6006 15.6761L17.3859 12.2109L15.6759 13.951ZM10.8548 12.3993L10.4556 14.5763L10.9528 17.145L11.0657 13.7627L10.8548 12.3993ZM13.1524 12.3993L12.949 13.7552L13.0394 17.145L13.5441 14.5763L13.1524 12.3993Z" fill="#E4751F" stroke="#E4751F" stroke-width="0.0753296" stroke-linecap="round" stroke-linejoin="round"/>
<path d="M13.5443 14.5763L13.0396 17.145L13.4012 17.3936L15.6008 15.6761L15.6762 13.951L13.5443 14.5763ZM8.33154 13.951L8.39181 15.6761L10.5914 17.3936L10.953 17.145L10.4558 14.5763L8.33154 13.951Z" fill="#F6851B" stroke="#F6851B" stroke-width="0.0753296" stroke-linecap="round" stroke-linejoin="round"/>
<path d="M13.5821 19.7589L13.6047 19.0583L13.4164 18.8926H10.5765L10.4032 19.0583L10.4183 19.7589L8.04541 18.6365L8.87404 19.3144L10.5539 20.482H13.439L15.1264 19.3144L15.955 18.6365L13.5821 19.7589Z" fill="#C0AD9E" stroke="#C0AD9E" stroke-width="0.0753296" stroke-linecap="round" stroke-linejoin="round"/>
<path d="M13.4009 17.3936L13.0394 17.145H10.9527L10.5912 17.3936L10.4028 19.0584L10.5761 18.8927H13.416L13.6043 19.0584L13.4009 17.3936Z" fill="#161616" stroke="#161616" stroke-width="0.0753296" stroke-linecap="round" stroke-linejoin="round"/>
<path d="M20.9642 8.60263L21.6045 5.52919L20.6479 2.67419L13.4012 8.05273L16.1884 10.4105L20.1281 11.5631L21.0019 10.5461L20.6253 10.2749L21.2279 9.72504L20.7609 9.36346L21.3635 8.90395L20.9642 8.60263ZM2.39551 5.52919L3.03581 8.60263L2.62903 8.90395L3.23167 9.36346L2.77216 9.72504L3.37479 10.2749L2.99814 10.5461L3.86443 11.5631L7.80417 10.4105L10.5914 8.05273L3.34466 2.67419L2.39551 5.52919Z" fill="#763D16" stroke="#763D16" stroke-width="0.0753296" stroke-linecap="round" stroke-linejoin="round"/>
<path d="M20.1281 11.5631L16.1884 10.4105L17.3861 12.2109L15.6008 15.6761L17.9511 15.6459H21.4539L20.1281 11.5631ZM7.80418 10.4105L3.86445 11.5631L2.55371 15.6459H6.049L8.39175 15.6761L6.61397 12.2109L7.80418 10.4105ZM13.1526 12.3992L13.4012 8.05271L14.5462 4.95667H9.46143L10.5914 8.05271L10.855 12.3992L10.9454 13.7702L10.953 17.145H13.0396L13.0547 13.7702L13.1526 12.3992Z" fill="#F6851B" stroke="#F6851B" stroke-width="0.0753296" stroke-linecap="round" stroke-linejoin="round"/>
</svg>
