<svg width="24" height="24" viewBox="0 0 24 24" fill="none" xmlns="http://www.w3.org/2000/svg">
<path d="M12.1359 2.24999C6.65249 2.17593 2.17593 6.65249 2.24999 12.1359C2.32312 17.3948 6.60515 21.6769 11.8641 21.75C17.3484 21.825 21.8241 17.3484 21.7491 11.865C21.6769 6.60515 17.3948 2.32312 12.1359 2.24999ZM11.9634 9.38015C11.9733 9.3239 11.9841 9.26765 11.9967 9.21187C12.1151 8.66443 12.3789 8.15904 12.7603 7.7489C13.3645 7.1053 14.2209 6.74999 15.172 6.74999C15.5722 6.74835 15.9696 6.8159 16.3467 6.94968C16.8155 7.11659 17.2377 7.393 17.5781 7.75593C18.0789 8.29724 18.377 8.99515 18.4219 9.73124C18.4348 9.90913 18.4348 10.0877 18.4219 10.2656C18.3858 10.7698 18.2554 11.2627 18.0375 11.7187C18.0137 11.7684 17.9889 11.8176 17.963 11.8664C17.9109 11.9634 17.8551 12.0586 17.7951 12.1505C17.6757 12.3339 17.5403 12.5064 17.3906 12.6661C16.7756 13.3223 15.9881 13.6847 15.173 13.6847C14.8673 13.6845 14.5637 13.6341 14.2744 13.5356C14.1772 13.5026 14.0817 13.4646 13.9884 13.4217C13.5978 13.2395 13.2464 12.9828 12.9539 12.6661C12.3451 12.0058 11.9811 11.1567 11.9226 10.2605C11.9142 10.1392 11.9114 10.0192 11.9142 9.90046C11.9178 9.72636 11.9343 9.55277 11.9634 9.38108V9.38015ZM4.94483 10.5211C4.96764 10.1866 5.0502 9.85894 5.18858 9.55358C5.22762 9.46854 5.27112 9.38561 5.3189 9.30515C5.41445 9.14386 5.52748 8.99358 5.65593 8.85702C5.84621 8.65403 6.06777 8.4828 6.31218 8.34983C6.43425 8.28312 6.56136 8.22607 6.69233 8.17921C7.19423 8.00367 7.73382 7.965 8.25562 8.06718C8.80851 8.17412 9.31349 8.45302 9.69843 8.86405C10.1552 9.35714 10.4126 10.0023 10.4208 10.6744C10.4231 10.7733 10.4208 10.8726 10.4137 10.9734C10.3851 11.3594 10.29 11.7374 10.1325 12.0909C10.0571 12.2611 9.96722 12.4245 9.8639 12.5794C9.66518 12.8797 9.41511 13.1426 9.12515 13.3561C9.05483 13.4062 8.98171 13.4531 8.90624 13.5C8.75781 13.5884 8.60074 13.6614 8.43749 13.718C8.19338 13.8033 7.9367 13.847 7.67812 13.8473C7.63452 13.8473 7.59093 13.8473 7.5478 13.8436C7.46169 13.8389 7.37592 13.8292 7.29093 13.8145C7.20636 13.7998 7.12265 13.7806 7.04015 13.7569C6.91622 13.7211 6.79524 13.6758 6.67827 13.6214C6.6389 13.6031 6.60046 13.5839 6.56202 13.5637C5.71827 13.1189 5.08218 12.1969 4.95749 11.1206C4.95187 11.0714 4.94718 11.0222 4.9439 10.9725C4.93331 10.8222 4.93363 10.6713 4.94483 10.5211ZM7.47233 18.893C6.22427 18.0703 5.22122 16.9262 4.5689 15.5812C4.54759 15.5382 4.54359 15.4887 4.55772 15.4428C4.57185 15.397 4.60302 15.3582 4.64483 15.3347C5.51577 14.8448 6.62812 14.5781 7.67905 14.5781C8.47593 14.5781 9.11812 14.6719 9.68015 14.8537C9.74386 14.8747 9.80079 14.9124 9.84499 14.9628C9.88919 15.0133 9.91905 15.0747 9.93145 15.1406C9.94385 15.2065 9.93834 15.2746 9.91549 15.3377C9.89264 15.4007 9.8533 15.4565 9.80155 15.4992C8.70702 16.3898 8.00155 17.4933 7.67015 18.8156C7.66519 18.8358 7.65544 18.8546 7.64172 18.8702C7.628 18.8859 7.61071 18.8981 7.59132 18.9056C7.57192 18.9132 7.55099 18.916 7.53028 18.9138C7.50957 18.9116 7.4897 18.9045 7.47233 18.893ZM12 20.25C10.9446 20.2511 9.89899 20.0486 8.9203 19.6537C8.88031 19.6372 8.84726 19.6074 8.82675 19.5693C8.80625 19.5312 8.79955 19.4872 8.8078 19.4447C8.82655 19.3486 8.84718 19.2609 8.86546 19.1878C9.19921 17.8551 10.0261 16.7503 11.2561 15.9919C12.3478 15.3192 13.7405 14.9489 15.1711 14.9489C16.6317 14.9489 17.9836 15.3042 19.0842 15.9759C19.1122 15.9935 19.1324 16.0212 19.1403 16.0533C19.1483 16.0854 19.1435 16.1194 19.1269 16.148C18.401 17.3949 17.361 18.4298 16.1106 19.1496C14.8601 19.8693 13.4428 20.2487 12 20.25Z" fill="white"/>
<path d="M7.54688 13.8413C7.46077 13.8365 7.375 13.8268 7.29001 13.8122C7.375 13.8268 7.46077 13.8365 7.54688 13.8413Z" fill="white"/>
<path d="M6.31124 8.34985C6.06683 8.48282 5.84528 8.65404 5.65499 8.85704C5.52655 8.99359 5.41352 9.14387 5.31796 9.30517C5.41352 9.14387 5.52655 8.99359 5.65499 8.85704C5.84528 8.65404 6.06683 8.48282 6.31124 8.34985Z" fill="white"/>
<path d="M10.133 12.0886C10.2905 11.7351 10.3856 11.3571 10.4142 10.9711C10.4212 10.8703 10.4236 10.771 10.4212 10.6721C10.4237 10.7705 10.4214 10.8702 10.4142 10.9711C10.3856 11.3571 10.2905 11.7351 10.133 12.0886Z" fill="white"/>
<path d="M6.31125 8.34982C6.43332 8.28311 6.56043 8.22606 6.69141 8.1792C6.56043 8.22606 6.43332 8.28311 6.31125 8.34982Z" fill="white"/>
<path d="M7.0411 13.7545C6.91718 13.7188 6.79619 13.6735 6.67923 13.6191C6.79619 13.6735 6.91718 13.7188 7.0411 13.7545Z" fill="white"/>
<path d="M4.95844 11.1183C5.08312 12.1964 5.72062 13.1166 6.56297 13.5614C5.71875 13.1166 5.08312 12.1945 4.95844 11.1183Z" fill="white"/>
<path d="M11.9222 10.2656C11.9807 11.1619 12.3447 12.0109 12.9534 12.6713C13.2459 12.988 13.5973 13.2446 13.988 13.4269C13.5973 13.2446 13.2459 12.988 12.9534 12.6713C12.3447 12.0109 11.9807 11.1619 11.9222 10.2656C11.9137 10.1444 11.9109 10.0244 11.9137 9.90564C11.9109 10.0228 11.9137 10.1428 11.9222 10.2656Z" fill="white"/>
<path d="M14.2734 13.5385C14.1762 13.5055 14.0808 13.4674 13.9875 13.4246C14.0808 13.4674 14.1762 13.5055 14.2734 13.5385Z" fill="white"/>
<path d="M11.9967 9.21279C12.1151 8.66535 12.3789 8.15997 12.7603 7.74982C12.3789 8.15997 12.1151 8.66535 11.9967 9.21279Z" fill="white"/>
<path d="M17.5781 7.75596C18.0789 8.29727 18.377 8.99518 18.4219 9.73127C18.377 8.99518 18.0789 8.29727 17.5781 7.75596C17.2377 7.39303 16.8155 7.11662 16.3467 6.94971C16.8155 7.11662 17.2377 7.39303 17.5781 7.75596Z" fill="white"/>
<path d="M18.4219 10.2656C18.3858 10.7698 18.2554 11.2627 18.0375 11.7188C18.2554 11.2627 18.3858 10.7698 18.4219 10.2656Z" fill="white"/>
<path d="M11.9138 9.90329C11.9174 9.72824 11.934 9.5537 11.9634 9.3811C11.934 9.5537 11.9174 9.72824 11.9138 9.90329Z" fill="white"/>
<path d="M17.962 11.8669C17.91 11.9639 17.8542 12.0591 17.7942 12.1509C17.8542 12.0591 17.91 11.9639 17.962 11.8669Z" fill="white"/>
<path d="M9.69751 8.86169C10.1543 9.35478 10.4117 9.99991 10.4199 10.672C10.4117 9.99991 10.1543 9.35478 9.69751 8.86169C9.31257 8.45066 8.8076 8.17176 8.2547 8.06482C8.8076 8.17176 9.31257 8.45066 9.69751 8.86169Z" fill="white"/>
<path d="M8.90625 13.5C8.75782 13.5884 8.60075 13.6614 8.4375 13.718C8.60075 13.6614 8.75782 13.5884 8.90625 13.5Z" fill="white"/>
<path d="M4.94485 10.5211C4.96766 10.1866 5.05022 9.85894 5.1886 9.55359C5.05022 9.85894 4.96766 10.1866 4.94485 10.5211Z" fill="white"/>
<path d="M9.12562 13.3538C9.05484 13.4063 8.98172 13.4531 8.90625 13.5C8.98172 13.4531 9.05484 13.4063 9.12562 13.3538Z" fill="white"/>
<path d="M10.133 12.0886C10.0576 12.2588 9.9677 12.4222 9.86438 12.5771C9.9677 12.4222 10.0576 12.2588 10.133 12.0886Z" fill="white"/>
<path d="M5.1886 9.55361C5.22764 9.46857 5.27113 9.38564 5.31891 9.30518C5.27113 9.38564 5.22764 9.46857 5.1886 9.55361Z" fill="white"/>
<path d="M9.12561 13.3537C9.41557 13.1402 9.66565 12.8773 9.86436 12.577C9.66565 12.8773 9.41557 13.1402 9.12561 13.3537Z" fill="white"/>
</svg>
