<svg width="24" height="24" viewBox="0 0 24 24" fill="none" xmlns="http://www.w3.org/2000/svg">
<path fill-rule="evenodd" clip-rule="evenodd" d="M22.0275 14.0447L22.0495 14.0625C22.278 14.2528 22.4312 14.5182 22.4818 14.8112C22.5324 15.1041 22.477 15.4055 22.3256 15.6614L20.3236 19.125C20.3224 19.1269 20.3212 19.1288 20.3201 19.1307C20.3192 19.1322 20.3183 19.1338 20.3175 19.1353C20.1661 19.3881 19.9308 19.5798 19.6526 19.677C19.3744 19.7741 19.0709 19.7705 18.795 19.6669L18.7786 19.6603L17.0381 18.9595C16.9287 18.9153 16.8104 18.8976 16.6928 18.9079C16.5752 18.9183 16.4617 18.9564 16.3617 19.0191C16.2099 19.1142 16.0533 19.2056 15.893 19.2919C15.7903 19.3479 15.7021 19.4272 15.6355 19.5234C15.569 19.6196 15.5258 19.7301 15.5095 19.8459L15.2484 21.7055L15.2442 21.7317C15.1942 22.0246 15.0424 22.2905 14.8156 22.4825C14.5888 22.6745 14.3015 22.7803 14.0044 22.7812H9.99563C9.70212 22.7789 9.4184 22.6754 9.19229 22.4882C8.96618 22.3011 8.81152 22.0417 8.75438 21.7537L8.74876 21.72L8.48813 19.8642C8.47203 19.7482 8.42889 19.6377 8.36221 19.5414C8.29552 19.4452 8.20715 19.366 8.10423 19.3102C7.94548 19.2242 7.78923 19.1327 7.63548 19.0355C7.53529 18.9724 7.42155 18.934 7.30363 18.9235C7.1857 18.913 7.06696 18.9306 6.9572 18.975L5.21954 19.6748L5.20313 19.6809C4.92765 19.7843 4.62467 19.7879 4.34681 19.6911C4.06894 19.5944 3.83374 19.4034 3.68204 19.1512C3.68029 19.1477 3.67825 19.1442 3.67595 19.1409L1.67391 15.6769C1.52303 15.4212 1.468 15.1202 1.51867 14.8277C1.56934 14.5353 1.72239 14.2703 1.95048 14.0803L1.97251 14.0625L3.45141 12.9019C3.54478 12.8286 3.61942 12.7342 3.66921 12.6265C3.719 12.5188 3.74251 12.4008 3.73782 12.2822V11.7403C3.74298 11.621 3.71975 11.5021 3.67004 11.3935C3.62033 11.2849 3.54557 11.1896 3.45188 11.1155L1.97251 9.95531L1.95048 9.9375C1.72217 9.74724 1.56898 9.48197 1.51832 9.18913C1.46765 8.89629 1.5228 8.59497 1.67391 8.33906L3.67876 4.87266L3.68485 4.86234C3.83638 4.60965 4.0717 4.41808 4.34988 4.32096C4.62805 4.22384 4.93147 4.22731 5.20735 4.33078L5.22376 4.33734L6.96423 5.04047C7.07365 5.08475 7.19201 5.10244 7.30959 5.09209C7.42718 5.08174 7.54063 5.04365 7.64063 4.98094C7.79251 4.88578 7.94907 4.79438 8.10938 4.70813C8.21165 4.6518 8.29935 4.57239 8.36551 4.4762C8.43167 4.38001 8.47446 4.2697 8.49048 4.15406L8.75157 2.29453L8.75579 2.26828C8.80579 1.97536 8.95757 1.70948 9.18438 1.51749C9.41118 1.32549 9.69847 1.2197 9.99563 1.21875H14.0044C14.2974 1.22176 14.5805 1.32554 14.806 1.51265C15.0315 1.69977 15.1858 1.95881 15.2428 2.24625L15.2484 2.28L15.5105 4.13578C15.5266 4.25176 15.5697 4.36232 15.6364 4.45856C15.7031 4.55481 15.7915 4.63403 15.8944 4.68984C16.0531 4.77609 16.2094 4.86766 16.3631 4.96453C16.4633 5.02763 16.5771 5.06602 16.695 5.07653C16.8129 5.08704 16.9317 5.06938 17.0414 5.025L18.7805 4.32516L18.7969 4.31906C19.0724 4.21571 19.3753 4.2121 19.6532 4.30886C19.9311 4.40562 20.1663 4.59664 20.318 4.84875C20.3197 4.85235 20.3218 4.85579 20.3241 4.85906L22.3261 8.32312C22.477 8.57877 22.532 8.87976 22.4813 9.17225C22.4307 9.46475 22.2776 9.72969 22.0495 9.91969L22.0275 9.9375L20.5486 11.0981C20.4552 11.1714 20.3806 11.2658 20.3308 11.3735C20.281 11.4812 20.2575 11.5992 20.2622 11.7178V12.2597C20.257 12.379 20.2803 12.4979 20.33 12.6065C20.3797 12.7151 20.4544 12.8104 20.5481 12.8845L22.0275 14.0447ZM15.0426 14.1921C15.4673 13.6025 15.7117 12.9021 15.7458 12.1763C15.7688 11.6551 15.6831 11.1349 15.4942 10.6487C15.3052 10.1624 15.0172 9.72085 14.6484 9.35197C14.2795 8.98309 13.838 8.695 13.3518 8.50601C12.8656 8.31702 12.3454 8.23127 11.8242 8.25422C11.0983 8.28827 10.398 8.5325 9.80829 8.95721C9.21862 9.38192 8.76505 9.96881 8.50274 10.6465C8.24044 11.3242 8.18069 12.0635 8.33077 12.7746C8.48085 13.4856 8.8343 14.1377 9.34812 14.6516C9.86194 15.1655 10.514 15.519 11.225 15.6692C11.936 15.8193 12.6754 15.7597 13.3531 15.4974C14.0308 15.2352 14.6178 14.7817 15.0426 14.1921ZM14.25 12C14.25 13.2426 13.2426 14.25 12 14.25C10.7574 14.25 9.75 13.2426 9.75 12C9.75 10.7574 10.7574 9.75 12 9.75C13.2426 9.75 14.25 10.7574 14.25 12Z" fill="white"/>
</svg>
