<svg width="24" height="24" viewBox="0 0 24 24" fill="none" xmlns="http://www.w3.org/2000/svg">
<path fill-rule="evenodd" clip-rule="evenodd" d="M12 2C6.47897 2 2 6.47897 2 12C2 17.521 6.47897 22 12 22C17.521 22 22 17.521 22 12C22 6.47897 17.521 2 12 2ZM4 12C4 7.58353 7.58353 4 12 4C16.4165 4 20 7.58353 20 12C20 16.4165 16.4165 20 12 20C7.58353 20 4 16.4165 4 12ZM13 6C13 5.44772 12.5523 5 12 5C11.4477 5 11 5.44772 11 6V12.75C11 13.3023 11.4477 13.75 12 13.75H16.5C17.0523 13.75 17.5 13.3023 17.5 12.75C17.5 12.1977 17.0523 11.75 16.5 11.75H13V6Z" fill="white"/>
</svg>
