<svg width="20" height="20" viewBox="0 0 20 20" fill="none" xmlns="http://www.w3.org/2000/svg">
<path fill-rule="evenodd" clip-rule="evenodd" d="M10 0C4.47897 0 0 4.47897 0 10C0 15.521 4.47897 20 10 20C15.521 20 20 15.521 20 10C20 4.47897 15.521 0 10 0ZM2 10C2 5.58353 5.58353 2 10 2C14.4165 2 18 5.58353 18 10C18 14.4165 14.4165 18 10 18C5.58353 18 2 14.4165 2 10ZM11 4C11 3.44772 10.5523 3 10 3C9.44771 3 9 3.44772 9 4V10.75C9 11.3023 9.44771 11.75 10 11.75H14.5C15.0523 11.75 15.5 11.3023 15.5 10.75C15.5 10.1977 15.0523 9.75 14.5 9.75H11V4Z" fill="white"/>
</svg>
