<svg width="16" height="16" viewBox="0 0 16 16" fill="none" xmlns="http://www.w3.org/2000/svg">
<path d="M8 1.5H7.99375H7.98438C4.4 1.50938 1.5 4.41563 1.5 8C1.5 11.5844 4.4 14.4906 7.98438 14.5H8C11.5906 14.5 14.5 11.5906 14.5 8C14.5 4.40937 11.5906 1.5 8 1.5ZM8.25937 5.39062C8.95 5.37188 9.61875 5.28125 10.2656 5.125C10.4594 5.89062 10.5813 6.775 10.6 7.74375H8.25937V5.39062ZM8.25937 4.86875V2.0625C8.95937 2.25625 9.67188 3.19062 10.1219 4.625C9.52187 4.76875 8.9 4.85 8.25937 4.86875ZM7.74062 2.05625V4.87187C7.09375 4.85312 6.46563 4.76875 5.8625 4.62187C6.31875 3.17812 7.03437 2.2375 7.74062 2.05625ZM7.74062 5.39062V7.74062H5.38438C5.40313 6.77187 5.525 5.8875 5.71875 5.12187C6.36875 5.27812 7.04688 5.37188 7.74062 5.39062ZM4.85938 7.74062H2.02813C2.08438 6.40312 2.58437 5.17812 3.38125 4.20937C3.95937 4.52812 4.575 4.79063 5.21875 4.98438C5.00625 5.8125 4.88125 6.74687 4.85938 7.74062ZM4.85938 8.25937C4.87812 9.25 5.00312 10.1875 5.21562 11.0156C4.57187 11.2125 3.95937 11.4719 3.37812 11.7906C2.58125 10.8219 2.08438 9.59687 2.025 8.25937H4.85938ZM5.38438 8.25937H7.74062V10.6062C7.04688 10.625 6.36875 10.7188 5.71875 10.8781C5.525 10.1125 5.40313 9.22812 5.38438 8.25937ZM7.74062 11.1281V13.9469C7.03437 13.7625 6.31875 12.825 5.8625 11.3813C6.46563 11.2313 7.09375 11.1469 7.74062 11.1281ZM8.25937 13.9375V11.125C8.9 11.1438 9.52188 11.2281 10.125 11.3719C9.67188 12.8094 8.9625 13.7437 8.25937 13.9375ZM8.25937 10.6062V8.25937H10.6C10.5813 9.225 10.4594 10.1094 10.2656 10.875C9.61875 10.7188 8.95 10.625 8.25937 10.6062ZM11.1219 8.25937H13.9719C13.9156 9.59687 13.4156 10.8187 12.6187 11.7906C12.0344 11.4688 11.4156 11.2062 10.7656 11.0094C10.9781 10.1812 11.1031 9.25 11.1219 8.25937ZM11.1219 7.74062C11.1031 6.75 10.9781 5.81563 10.7688 4.9875C11.4187 4.79063 12.0375 4.52812 12.6187 4.20937C13.4156 5.17812 13.9156 6.40312 13.9719 7.74375H11.1219V7.74062ZM12.2625 3.80938C11.7437 4.08438 11.2 4.3125 10.6281 4.48438C10.325 3.50625 9.89688 2.70938 9.39375 2.18438C10.5 2.45 11.4875 3.025 12.2625 3.80938ZM6.5875 2.19062C6.08437 2.7125 5.65938 3.50937 5.35938 4.48125C4.79375 4.30937 4.25312 4.08438 3.74062 3.80938C4.50625 3.02813 5.4875 2.45625 6.5875 2.19062ZM3.7375 12.1875C4.25 11.9125 4.79375 11.6875 5.35625 11.5156C5.65937 12.4906 6.08437 13.2844 6.5875 13.8094C5.4875 13.5437 4.50625 12.9719 3.7375 12.1875ZM9.39375 13.8156C9.9 13.2906 10.325 12.4937 10.6313 11.5125C11.2031 11.6844 11.7469 11.9125 12.2656 12.1875C11.4906 12.975 10.5 13.55 9.39375 13.8156Z" fill="white"/>
</svg>
