<svg width="24" height="24" viewBox="0 0 24 24" fill="none" xmlns="http://www.w3.org/2000/svg">
<path d="M4.70865 6.93084C8.45916 3.02305 14.5408 3.02305 18.2913 6.93084L18.7429 7.40097C18.7874 7.44689 18.8228 7.50187 18.847 7.56264C18.8712 7.62341 18.8836 7.68873 18.8836 7.75472C18.8836 7.82071 18.8712 7.88603 18.847 7.9468C18.8228 8.00757 18.7874 8.06254 18.7429 8.10847L17.1987 9.71721C17.1532 9.76419 17.0923 9.79046 17.0289 9.79046C16.9654 9.79046 16.9045 9.76419 16.859 9.71721L16.2378 9.06988C13.6215 6.34434 9.37908 6.34434 6.76218 9.06988L6.09692 9.76283C6.05138 9.80981 5.99046 9.83608 5.92704 9.83608C5.86362 9.83608 5.8027 9.80981 5.75716 9.76283L4.21298 8.15409C4.16846 8.10817 4.13306 8.05319 4.10889 7.99242C4.08472 7.93165 4.07226 7.86633 4.07226 7.80034C4.07226 7.73435 4.08472 7.66903 4.10889 7.60826C4.13306 7.54749 4.16846 7.49252 4.21298 7.44659L4.70865 6.93084ZM21.4853 10.2574L22.8593 11.6896C22.9038 11.7355 22.9392 11.7905 22.9634 11.8513C22.9875 11.9121 23 11.9774 23 12.0434C23 12.1094 22.9875 12.1747 22.9634 12.2354C22.9392 12.2962 22.9038 12.3512 22.8593 12.3971L16.6627 18.8532C16.5717 18.9474 16.4498 19 16.3229 19C16.196 19 16.0742 18.9474 15.9832 18.8532L11.5854 14.271C11.5627 14.2473 11.5321 14.2341 11.5003 14.2341C11.4685 14.2341 11.438 14.2473 11.4152 14.271L7.01747 18.8532C6.92646 18.9474 6.80458 19 6.6777 19C6.55082 19 6.42894 18.9474 6.33793 18.8532L0.140716 12.3971C0.0961973 12.3512 0.0608009 12.2962 0.0366283 12.2354C0.0124558 12.1747 0 12.1094 0 12.0434C0 11.9774 0.0124558 11.9121 0.0366283 11.8513C0.0608009 11.7905 0.0961973 11.7355 0.140716 11.6896L1.51532 10.2574C1.6063 10.1635 1.72805 10.111 1.85478 10.111C1.98151 10.111 2.10326 10.1635 2.19424 10.2574L6.59198 14.8397C6.61473 14.8633 6.64527 14.8766 6.67708 14.8766C6.70889 14.8766 6.73943 14.8633 6.76218 14.8397L11.1599 10.2574C11.2509 10.1633 11.3728 10.1107 11.4997 10.1107C11.6266 10.1107 11.7485 10.1633 11.8395 10.2574L16.2378 14.8397C16.2606 14.8633 16.2911 14.8766 16.3229 14.8766C16.3547 14.8766 16.3853 14.8633 16.408 14.8397L20.8058 10.2574C20.8968 10.1633 21.0187 10.1107 21.1455 10.1107C21.2724 10.1107 21.3943 10.1633 21.4853 10.2574Z" fill="#5697F5"/>
</svg>
